<svg xmlns="http://www.w3.org/2000/svg" height="58" width="58"><rect id="backgroundrect" width="100%" height="100%" x="0" y="0" fill="none" stroke="none"/><g class="currentLayer" style=""><title>Layer 1</title><g id="Page-1" fill="#ffffff" fill-rule="evenodd" class="selected" fill-opacity="1"><g id="003---Call" fill="#ffffff" fill-rule="nonzero" fill-opacity="1"><path id="Shape" d="m24.017,33.983 c-5.536,-5.536 -6.786,-11.072 -7.068,-13.29 c-0.07879940000000002,-0.6132828 0.13224810000000004,-1.2283144000000001 0.5710000000000001,-1.6640000000000001 l4.48,-4.478 c0.6590136000000001,-0.6586066000000002 0.7759628999999999,-1.6850240000000003 0.28200000000000003,-2.475 l-7.133,-11.076 c-0.5464836999999999,-0.8747513400000001 -1.6685624,-1.19045777 -2.591,-0.7290000000000001 l-11.451,5.393 c-0.7459411700000002,0.3673080000000001 -1.1846933800000001,1.15985405 -1.1,1.987 c0.6000000000000001,5.7 3.085,19.712 16.855,33.483 s27.78,16.255 33.483,16.855 c0.827146,0.08469340000000003 1.6196920000000001,-0.35405880000000006 1.987,-1.1 l5.393,-11.451 c0.4597307,-0.9204474 0.14611400000000002,-2.0395184 -0.7250000000000001,-2.587 l-11.076,-7.131 c-0.7895259,-0.4944789000000001 -1.8158967000000001,-0.3783642000000001 -2.475,0.28 l-4.478,4.48 c-0.43568560000000006,0.43875190000000003 -1.0507172,0.6497994000000002 -1.6640000000000001,0.5710000000000001 c-2.218,-0.28200000000000003 -7.7540000000000004,-1.532 -13.29,-7.068 z" fill="#ffffff" fill-opacity="1"/><path id="Shape" d="m46,31 c-1.1045695,0 -2,-0.8954305 -2,-2 c-0.009368500000000002,-8.280387600000001 -6.7196124,-14.9906315 -15,-15 c-1.1045695,0 -2,-0.8954305 -2,-2 s0.8954305,-2 2,-2 c10.4886126,0.011573500000000004 18.9884265,8.5113874 19,19 c0,1.1045695 -0.8954305,2 -2,2 z" fill="#ffffff" fill-opacity="1"/><path id="Shape" d="m56,31 c-1.1045695,0 -2,-0.8954305 -2,-2 c-0.015430900000000003,-13.800722 -11.199278,-24.9845691 -25,-25 c-1.1045695,0 -2,-0.8954305 -2,-2 s0.8954305,-2 2,-2 c16.008947,0.017635870000000005 28.982364099999998,12.991053 29,29 c0,0.5304329999999999 -0.21071370000000003,1.0391408 -0.5857864,1.4142136 c-0.3750728000000001,0.3750727000000001 -0.8837806000000001,0.5857864 -1.4142136,0.5857864 z" fill="#ffffff" fill-opacity="1"/></g></g></g></svg>